<svg width="15" height="15" fill="none" xmlns="http://www.w3.org/2000/svg"><path d="M7.345 14.345a7 7 0 110-14 7 7 0 010 14zm0-13.066a6.067 6.067 0 100 12.134 6.067 6.067 0 000-12.134z" fill="#A5A5A5"/><path d="M7.126 7a16.758 16.758 0 01-6.16-1.32l.378-.855c.075.033 7.546 3.3 11.335-1.008l.7.616C11.643 6.412 9.305 7 7.126 7zm-4.653 4.587l-.606-.71c.275-.237 6.832-5.744 12.264-2.31l-.5.79C8.783 6.29 2.534 11.544 2.473 11.586z" fill="#A5A5A5"/><path d="M7.495 14.172l-.724-.588c5.39-6.612.028-12.212-.205-12.445l.667-.654c.06.066 6.179 6.435.262 13.687z" fill="#A5A5A5"/></svg>