<svg width="17" height="14" fill="none" xmlns="http://www.w3.org/2000/svg"><path d="M16.327 1.608a6.43 6.43 0 01-1.896.545A3.433 3.433 0 0015.882.25a6.425 6.425 0 01-2.095.833A3.221 3.221 0 0011.383 0C9.562 0 8.085 1.537 8.085 3.433c0 .268.03.53.087.783-2.74-.145-5.17-1.513-6.797-3.59a3.523 3.523 0 00-.446 1.73c0 1.19.58 2.24 1.466 2.858A3.234 3.234 0 01.9 4.785v.04c0 1.666 1.137 3.053 2.645 3.368a3.11 3.11 0 01-.867.124c-.213 0-.42-.026-.621-.064.42 1.361 1.637 2.356 3.08 2.386a6.461 6.461 0 01-4.883 1.42A9.094 9.094 0 005.31 13.6c6.064 0 9.382-5.232 9.382-9.77 0-.15-.004-.297-.011-.444a6.67 6.67 0 001.646-1.778z" fill="#A5A5A5"/></svg>