<svg width="50" height="50" fill="none" xmlns="http://www.w3.org/2000/svg"><circle cx="25" cy="25" r="25" fill="#FFD6CD"/><path d="M35.697 13.58A15.536 15.536 0 0024.64 9a15.536 15.536 0 00-11.059 4.58A15.536 15.536 0 009 24.64c0 4.176 1.626 8.105 4.58 11.058a15.536 15.536 0 0011.059 4.58c4.177 0 8.105-1.626 11.058-4.58a15.536 15.536 0 004.581-11.059c0-4.177-1.626-8.105-4.58-11.058zm1.524 13.147a18.007 18.007 0 01-4.13 6.366 18.099 18.099 0 01-13.538 5.302 14.548 14.548 0 01-4.334-2.524 19.245 19.245 0 007.3-.804A19.168 19.168 0 0035.065 22.52a19.3 19.3 0 00.803-7.3 14.543 14.543 0 012.524 4.334 18.054 18.054 0 01-1.171 7.172zM10.55 20.57a19.036 19.036 0 005.969-4.05 19.029 19.029 0 004.05-5.968 14.676 14.676 0 013.678-.565 18.023 18.023 0 01-4.969 9.293 18.02 18.02 0 01-9.293 4.968c.032-1.26.224-2.494.565-3.678zm-.557 4.677a18.996 18.996 0 009.979-5.273 18.996 18.996 0 005.273-9.98c.95.04 1.886.168 2.796.383a18.038 18.038 0 01-5.31 12.356 18.04 18.04 0 01-12.356 5.31 14.658 14.658 0 01-.383-2.796zm13.432-1.82a19.008 19.008 0 005.588-12.784c.83.26 1.636.592 2.407.995a18.08 18.08 0 01-5.236 14.549 18.065 18.065 0 01-14.55 5.234 14.448 14.448 0 01-.993-2.405 19.014 19.014 0 0012.784-5.588zM13.37 32.486c5.055 0 9.888-1.985 13.509-5.605a19.049 19.049 0 005.57-14.65c.813.514 1.58 1.111 2.291 1.788a18.325 18.325 0 01-.611 8.21 18.189 18.189 0 01-11.902 11.902 18.323 18.323 0 01-8.21.612 14.768 14.768 0 01-1.789-2.29c.382.02.763.033 1.142.033zm.903-18.211a14.622 14.622 0 015.018-3.291 18.066 18.066 0 01-3.465 4.843 18.055 18.055 0 01-4.843 3.465 14.621 14.621 0 013.29-5.017zm20.73 20.73a14.562 14.562 0 01-10.364 4.293c-.568 0-1.13-.033-1.685-.096a19.087 19.087 0 0010.832-5.416A19.076 19.076 0 0039.2 22.953c.063.557.096 1.119.096 1.687 0 3.915-1.525 7.597-4.293 10.365z" fill="#AE0F0F"/></svg>