<svg width="305" height="377" fill="none" xmlns="http://www.w3.org/2000/svg"><path d="M128.361 53.405a103.423 103.423 0 00-23.876-28.693L86.127 71.496l17.818 32.849a6.751 6.751 0 01-2.474 9.012 141.756 141.756 0 00-59.183 69.865 141.75 141.75 0 00-4.122 91.469 6.751 6.751 0 01-4.315 8.29L-1.55 294.947l-18.358 46.785a103.42 103.42 0 0037.02-4.803l31.837-10.258a155.735 155.735 0 01-14.728-24.618l12.176-5.827.002.001a141.596 141.596 0 0076.068 70.725 140.382 140.382 0 00109.798-2.631l72.465-184.68a140.375 140.375 0 00-31.554-46.315 140.362 140.362 0 00-47.156-30.283 141.87 141.87 0 00-69.826-8.663 6.745 6.745 0 01-6.753-3.39l-21.079-37.585zm3.966 288.416l-4.931 12.567a127.465 127.465 0 01-59.034-47.083l11.158-7.598.003.001a113.992 113.992 0 0052.804 42.113zm-58.283-50.996l-11.8 6.56a129.65 129.65 0 01-6.488-13.451l12.481-5.154a115.56 115.56 0 005.807 12.045zm156.753-33.635a67.498 67.498 0 01-35.839 37.209 67.496 67.496 0 01-88.863-34.868 67.497 67.497 0 0134.868-88.862 67.501 67.501 0 0151.653-.971 67.592 67.592 0 0137.183 35.851 67.59 67.59 0 01.998 51.641zM93.187 16.548l-16.269 41.46A56.17 56.17 0 00-16.9 75.355L-74.466 222.06a56.172 56.172 0 0056.988 76.52l-16.268 41.46a102.636 102.636 0 01-70.599-51.273 102.637 102.637 0 01-5.638-87.07l53.195-135.568A102.64 102.64 0 0193.186 16.55zm94.498 165.718a53.986 53.986 0 0129.767 28.671 53.991 53.991 0 01-27.894 71.089 53.996 53.996 0 01-71.089-27.895 53.984 53.984 0 01-.777-41.321 54.042 54.042 0 0128.681-29.744 54.044 54.044 0 0141.312-.8z" fill="#F7F5F5"/></svg>