<svg width="124" height="43" fill="none" xmlns="http://www.w3.org/2000/svg"><path d="M57.836 28.867c0 .093-.012.19-.038.292a.423.423 0 01-.14.254c-.38.288-.795.554-1.243.8a9.646 9.646 0 01-3.11 1.028c-.593.102-1.232.153-1.918.153-1.54 0-2.945-.225-4.215-.673-1.27-.457-2.361-1.1-3.275-1.93a8.612 8.612 0 01-2.107-2.983c-.5-1.168-.75-2.463-.75-3.885 0-.804.102-1.595.305-2.374a9.64 9.64 0 01.914-2.222 8.972 8.972 0 011.473-1.93 9.402 9.402 0 011.993-1.536 10.187 10.187 0 012.476-1.003 11.18 11.18 0 012.932-.368c.407 0 .821.021 1.244.064.424.034.843.089 1.257.165.415.068.813.152 1.194.254.389.101.757.215 1.104.342l.863 2.35-.101.05a7.077 7.077 0 00-1.143-.825 9.064 9.064 0 00-2.932-1.092 8.016 8.016 0 00-1.625-.165c-1.067 0-2.044.17-2.933.508a6.398 6.398 0 00-2.298 1.447c-.635.635-1.13 1.413-1.485 2.336-.356.922-.533 1.972-.533 3.148 0 1.295.169 2.497.507 3.606.339 1.108.843 2.07 1.511 2.882a7.039 7.039 0 002.501 1.917c1.007.457 2.18.685 3.517.685.592 0 1.121-.046 1.587-.14a6.217 6.217 0 001.18-.342c.322-.144.563-.296.724-.457.17-.17.254-.322.254-.457v-.495a39.7 39.7 0 00-.026-1.537 16.6 16.6 0 00-.076-1.117 10.852 10.852 0 00-.114-.825 5.839 5.839 0 00-.152-.635v-.05h3.047v.05a8.94 8.94 0 00-.153.635c-.042.237-.08.52-.114.85-.034.33-.06.72-.076 1.169-.017.44-.026.952-.026 1.536v.52zm9.103-3.098c0 .762.008 1.427.025 1.994s.038 1.058.064 1.472c.034.407.072.75.114 1.029.05.279.106.508.165.685V31h-2.945v-.05c.06-.178.11-.407.152-.686.05-.28.089-.622.114-1.029.034-.414.06-.905.077-1.472s.025-1.232.025-1.994v-.875l-4.57-6.03a6.475 6.475 0 00-.876-.978c-.28-.254-.491-.415-.635-.483v-.05h3.605c0 .152.055.389.165.71.11.314.335.699.673 1.156l3.225 4.265 3.3-4.443a4.01 4.01 0 00.534-.952c.127-.313.19-.559.19-.736h2.324v.05a5.103 5.103 0 00-.66.546c-.22.22-.479.533-.775.94l-4.291 5.814v1.067zm5.98 5.18c.11-.118.22-.334.33-.647a5.93 5.93 0 00.279-1.016c.101-.592.211-1.265.33-2.018.127-.762.25-1.545.368-2.35.127-.803.25-1.603.368-2.398l.33-2.235c.102-.685.186-1.286.254-1.803.068-.516.115-.892.14-1.13h1.51l6.056 10.842 6.208-10.841h1.232l1.523 10.6c.076.483.148.893.216 1.232.076.338.148.626.216.863.068.228.135.415.203.558.068.144.127.259.178.343V31h-3.123v-.05c.025-.069.055-.183.088-.344.043-.16.064-.35.064-.57 0-.145-.013-.352-.038-.623a8.252 8.252 0 00-.089-.8l-1.092-7.782-5.776 10.144-.901-.127-5.675-10.093a256.159 256.159 0 00-.559 3.948l-.203 1.549a74.118 74.118 0 00-.178 1.46c-.05.448-.093.846-.127 1.193a8.66 8.66 0 00-.05.775c0 .211.004.398.012.558a8.766 8.766 0 00.089.762h-2.184v-.05zm30.735-4.24h-3.237c-.432 0-.843.004-1.232.013-.39 0-.745.004-1.066.012h-.75l-.47.99c-.202.407-.376.762-.52 1.067-.144.296-.262.559-.355.787a4.7 4.7 0 00-.203.597 1.799 1.799 0 00-.051.673.284.284 0 00.038.101V31h-2.234v-.05c.059-.06.152-.187.279-.382.127-.203.27-.448.432-.736.169-.288.347-.614.533-.977.195-.364.385-.741.571-1.13l5.18-10.69h.952l5.078 10.69c.195.406.389.795.584 1.168.203.372.389.706.559 1.002.169.288.317.53.444.724.127.186.212.296.254.33V31h-3.25a.74.74 0 00.025-.178v-.19c0-.186-.042-.41-.127-.673a6.446 6.446 0 00-.292-.8 9.88 9.88 0 00-.355-.8 43.398 43.398 0 01-.292-.634l-.495-1.016zm-5.79-.99h1.906c.406-.009.813-.013 1.219-.013h1.18c.381-.008.724-.013 1.029-.013l-2.628-5.611-2.704 5.637zm14.905-7.427c-.77 0-1.473.034-2.107.102a29.46 29.46 0 00-1.625.215c-.525.093-.999.195-1.422.305l.254-1.638c.127.017.334.03.622.038l.901.026c.322 0 .622.004.901.012h7.161c.279-.008.575-.012.888-.012l.902-.026c.287-.008.495-.02.622-.038l.254 1.638c-.407-.11-.872-.212-1.397-.305a26.59 26.59 0 00-1.625-.215 19.86 19.86 0 00-2.12-.102v7.477c0 .762.008 1.427.025 1.994s.039 1.058.064 1.472c.034.407.072.75.114 1.029.042.279.093.508.152.685V31h-2.932v-.05c.059-.178.11-.407.152-.686.043-.28.081-.622.114-1.029.034-.414.06-.905.077-1.472s.025-1.232.025-1.994v-7.477z" fill="#fff"/><path d="M9.108 22.188l3.104 3.103a1.465 1.465 0 01-.746.208 1.42 1.42 0 01-1.01-.416l-1.14-1.14a1.426 1.426 0 01-.208-1.755zm5.884-5.942l3.16 3.16 1.255-1.253-3.16-3.16-1.255 1.253zm10.09-5.79l-1.139-1.14a1.426 1.426 0 00-1.756-.207l3.104 3.103a1.426 1.426 0 00-.208-1.756zm-4.93-1.35a2.151 2.151 0 00-3.04 0l-.84.84a2.151 2.151 0 000 3.04l5.14 5.14a2.153 2.153 0 003.04 0l.84-.84a2.151 2.151 0 000-3.04l-5.14-5.14zm-7.166 7.167a2.15 2.15 0 00-3.04 0l-.84.84a2.151 2.151 0 000 3.04l5.14 5.14a2.152 2.152 0 003.04 0l.84-.84a2.15 2.15 0 000-3.04l-5.14-5.14zM34.4 17.2c0 13.11-16.088 25.153-16.774 25.66a.716.716 0 01-.852 0C16.088 42.353 0 30.31 0 17.2a17.2 17.2 0 1134.4 0zm-4.3 0a12.9 12.9 0 10-12.9 12.9 12.915 12.915 0 0012.9-12.9z" fill="#AE0F0F"/></svg>