<svg width="332" height="376" fill="none" xmlns="http://www.w3.org/2000/svg"><path d="M46.49 36.868a103.965 103.965 0 00-37.074-5.82l17.19 47.513 35.257 12.98a6.788 6.788 0 014.113 8.447 142.518 142.518 0 001.68 92.039 142.515 142.515 0 0057.597 71.808 6.788 6.788 0 012.244 9.124l-18.792 32.534 17.189 47.513a103.968 103.968 0 0024.768-28.197l17.233-28.877a156.681 156.681 0 01-27.462-8.815l5.327-12.482.003-.001a142.361 142.361 0 00104.384 2.92 141.1 141.1 0 0048.207-29.165 141.113 141.113 0 0032.96-45.697L263.46 15.135a141.135 141.135 0 00-54.569-14.032 141.13 141.13 0 00-55.709 8.43 142.638 142.638 0 00-58.479 39.804 6.78 6.78 0 01-7.35 1.922L46.49 36.869zm194.423 215.163l4.618 12.763a128.152 128.152 0 01-75.829 3.628l3.383-13.144.002-.001a114.6 114.6 0 0067.826-3.246zm-77.858.174l-4.557 12.786a130.473 130.473 0 01-13.828-5.851l6.005-12.176a116.072 116.072 0 0012.38 5.241zm96.046-129.439a67.86 67.86 0 01-2.367 51.885 67.86 67.86 0 01-90.247 32.65 67.858 67.858 0 01-32.649-90.246 67.86 67.86 0 0138.361-35.017 67.952 67.952 0 0151.873 2.394 67.952 67.952 0 0135.029 38.334zM-4.534 32.382l15.233 42.106a56.472 56.472 0 00-59.334 75.369L5.267 298.848a56.468 56.468 0 0041.363 36.054 56.47 56.47 0 0052.46-16.095l15.232 42.106a103.185 103.185 0 01-87.343 8.139 103.187 103.187 0 01-62.048-62.008l-49.81-137.68A103.19 103.19 0 01-4.534 32.384v-.002zm181.35 62.42a54.282 54.282 0 0141.509 1.893 54.282 54.282 0 0126.119 72.196 54.285 54.285 0 01-72.197 26.12 54.281 54.281 0 01-28.013-30.688 54.337 54.337 0 011.917-41.498 54.334 54.334 0 0130.665-28.024z" fill="#F4F4F4"/></svg>