<svg width="124" height="43" fill="none" xmlns="http://www.w3.org/2000/svg"><path d="M57.837 28.867c0 .093-.013.19-.038.292a.423.423 0 01-.14.254c-.38.288-.795.554-1.244.8a9.645 9.645 0 01-3.11 1.028c-.593.102-1.232.153-1.917.153-1.54 0-2.946-.225-4.215-.673-1.27-.457-2.361-1.1-3.276-1.93a8.614 8.614 0 01-2.107-2.983c-.5-1.168-.749-2.463-.749-3.885 0-.804.102-1.595.305-2.374.211-.779.516-1.52.914-2.222a8.972 8.972 0 011.472-1.93 9.402 9.402 0 011.994-1.536 10.185 10.185 0 012.475-1.003 11.18 11.18 0 012.933-.368c.406 0 .82.021 1.244.064.423.034.842.089 1.257.165a12.3 12.3 0 011.193.254c.39.101.758.215 1.105.342l.863 2.35-.102.05a7.077 7.077 0 00-1.142-.825 9.064 9.064 0 00-2.933-1.092 8.014 8.014 0 00-1.625-.165c-1.066 0-2.044.17-2.932.508a6.398 6.398 0 00-2.298 1.447c-.635.635-1.13 1.413-1.486 2.336-.355.922-.533 1.972-.533 3.148 0 1.295.17 2.497.508 3.606.339 1.108.842 2.07 1.51 2.882a7.04 7.04 0 002.502 1.917c1.007.457 2.179.685 3.516.685a8.14 8.14 0 001.587-.14 6.217 6.217 0 001.18-.342c.322-.144.564-.296.724-.457.17-.17.254-.322.254-.457v-.495c0-.593-.008-1.105-.025-1.537a16.667 16.667 0 00-.076-1.117 10.796 10.796 0 00-.114-.825 5.84 5.84 0 00-.153-.635v-.05h3.047v.05a8.94 8.94 0 00-.152.635c-.043.237-.08.52-.114.85-.034.33-.06.72-.077 1.169-.017.44-.025.952-.025 1.536v.52zm9.102-3.098c0 .762.009 1.427.026 1.994s.038 1.058.063 1.472c.034.407.072.75.115 1.029.05.279.105.508.165.685V31h-2.946v-.05c.06-.178.11-.407.153-.686.05-.28.088-.622.114-1.029.034-.414.06-.905.076-1.472.017-.567.026-1.232.026-1.994v-.875l-4.57-6.03a6.475 6.475 0 00-.877-.978c-.28-.254-.49-.415-.635-.483v-.05h3.606c0 .152.055.389.165.71.11.314.334.699.673 1.156l3.224 4.265 3.301-4.443a4 4 0 00.533-.952c.127-.313.19-.559.19-.736h2.324v.05a5.11 5.11 0 00-.66.546c-.22.22-.478.533-.774.94l-4.291 5.814v1.067zm5.98 5.18c.11-.118.22-.334.33-.647a5.93 5.93 0 00.28-1.016c.1-.592.21-1.265.33-2.018.126-.762.25-1.545.368-2.35.126-.803.25-1.603.368-2.398l.33-2.235c.101-.685.186-1.286.254-1.803.067-.516.114-.892.14-1.13h1.51l6.056 10.842 6.208-10.841h1.231l1.524 10.6c.076.483.148.893.216 1.232.076.338.148.626.215.863.068.228.136.415.203.558.068.144.127.259.178.343V31h-3.123v-.05a2.83 2.83 0 00.089-.344c.042-.16.063-.35.063-.57a6.94 6.94 0 00-.038-.623 8.284 8.284 0 00-.088-.8l-1.092-7.782-5.777 10.144-.901-.127-5.675-10.093a256.159 256.159 0 00-.558 3.948l-.204 1.549a74.85 74.85 0 00-.177 1.46 76.91 76.91 0 00-.127 1.193 8.75 8.75 0 00-.051.775c0 .211.004.398.013.558a8.964 8.964 0 00.089.762h-2.184v-.05zm30.735-4.24h-3.237c-.432 0-.842.004-1.231.013-.39 0-.745.004-1.067.012h-.749l-.47.99c-.203.407-.376.762-.52 1.067-.144.296-.262.559-.356.787a4.7 4.7 0 00-.203.597 1.799 1.799 0 00-.05.673.284.284 0 00.038.101V31h-2.235v-.05c.06-.06.153-.187.28-.382.127-.203.27-.448.431-.736.17-.288.347-.614.533-.977.195-.364.386-.741.572-1.13l5.179-10.69h.952l5.079 10.69c.194.406.389.795.584 1.168.203.372.389.706.558 1.002.169.288.318.53.445.724.126.186.211.296.253.33V31h-3.25a.747.747 0 00.026-.178v-.19c0-.186-.042-.41-.127-.673a6.612 6.612 0 00-.292-.8 9.882 9.882 0 00-.356-.8 85.04 85.04 0 01-.292-.634l-.495-1.016zm-5.789-.99h1.905c.406-.009.812-.013 1.218-.013h1.181a46.53 46.53 0 011.028-.013l-2.628-5.611-2.704 5.637zm14.905-7.427a19.9 19.9 0 00-2.108.102 29.59 29.59 0 00-1.625.215c-.525.093-.999.195-1.422.305l.254-1.638c.127.017.334.03.622.038l.902.026c.321 0 .622.004.901.012h7.16c.279-.008.576-.012.889-.012l.901-.026a6.3 6.3 0 00.622-.038l.254 1.638c-.406-.11-.872-.212-1.396-.305a27.142 27.142 0 00-1.625-.215 19.873 19.873 0 00-2.12-.102v7.477c0 .762.008 1.427.025 1.994s.038 1.058.063 1.472c.034.407.072.75.115 1.029.042.279.093.508.152.685V31h-2.933v-.05c.06-.178.11-.407.153-.686.042-.28.08-.622.114-1.029.034-.414.059-.905.076-1.472s.026-1.232.026-1.994v-7.477z" fill="#484848"/><path d="M9.109 22.188l3.103 3.103a1.465 1.465 0 01-.745.208 1.42 1.42 0 01-1.01-.416l-1.14-1.14a1.426 1.426 0 01-.208-1.755zm5.883-5.942l3.16 3.16 1.255-1.253-3.16-3.16-1.255 1.253zm10.091-5.79l-1.14-1.14a1.426 1.426 0 00-1.755-.207l3.103 3.103a1.425 1.425 0 00-.208-1.756zm-4.93-1.35a2.15 2.15 0 00-3.04 0l-.84.84a2.151 2.151 0 000 3.04l5.14 5.14a2.153 2.153 0 003.04 0l.84-.84a2.151 2.151 0 000-3.04l-5.14-5.14zm-7.166 7.167a2.151 2.151 0 00-3.04 0l-.84.84a2.151 2.151 0 000 3.04l5.14 5.14a2.152 2.152 0 003.04 0l.84-.84a2.15 2.15 0 000-3.04l-5.14-5.14zM34.4 17.2c0 13.11-16.089 25.153-16.774 25.66a.716.716 0 01-.852 0C16.089 42.353 0 30.31 0 17.2a17.2 17.2 0 1134.4 0zm-4.3 0a12.9 12.9 0 10-12.9 12.9 12.915 12.915 0 0012.9-12.9z" fill="#AE0F0F"/></svg>