<svg width="239" height="32" fill="none" xmlns="http://www.w3.org/2000/svg"><path d="M230.326 21.192h-13.492v1.801h3.855v2.702h3.855l6.746-.9.964.9 3.854 1.802H239v1.801h-1.928V32c-86.417-2.377-132.992-2.702-206.234-.9L9.637 32v-2.702h2.89v-1.801h-2.89v-1.802h-7.71v-2.702L0 18.49v-2.702h9.637l-.964-1.802h9.637l2.891-.9h8.674v-1.802h-4.819l-2.891-.9-.964-.9-1.927-.902L21.2 6.781h3.855l2.891-1.801h12.528V2.278C109.066-1.37 148.91-.068 219.102 2.226l1.587.052V4.98l1.927 1.801 1.928-1.801h5.782v3.602h3.855v2.702h-1.927v5.405h-1.928v4.503z" fill="#AE0F0F"/></svg>