<svg width="360" height="377" fill="none" xmlns="http://www.w3.org/2000/svg"><path d="M245.992 53.21a103.39 103.39 0 00-23.876-28.694L203.759 71.3l17.818 32.849a6.752 6.752 0 01-2.475 9.013 141.75 141.75 0 00-59.182 69.864 141.748 141.748 0 00-4.122 91.469 6.751 6.751 0 01-4.315 8.29l-35.403 11.967-18.357 46.784c12.528.659 25.073-.97 37.019-4.803l31.838-10.257a155.732 155.732 0 01-14.729-24.619l12.176-5.827.003.001a141.6 141.6 0 0076.067 70.725 140.398 140.398 0 00109.799-2.63l72.465-184.68a140.382 140.382 0 00-31.555-46.316 140.383 140.383 0 00-47.155-30.283 141.88 141.88 0 00-69.827-8.662 6.745 6.745 0 01-6.752-3.391l-21.08-37.584zm3.967 288.415l-4.931 12.567a127.473 127.473 0 01-59.035-47.082l11.159-7.599.003.001a113.992 113.992 0 0052.804 42.113zm-58.283-50.996l-11.8 6.561a129.576 129.576 0 01-6.488-13.452l12.481-5.153a115.362 115.362 0 005.807 12.044zm156.752-33.634a67.5 67.5 0 11-38.18-87.492 67.592 67.592 0 0137.183 35.851 67.59 67.59 0 01.997 51.641zM210.818 16.353l-16.268 41.46a56.17 56.17 0 00-93.819 17.346L43.166 221.864a56.17 56.17 0 0056.988 76.521l-16.269 41.46a102.636 102.636 0 01-70.598-51.274 102.634 102.634 0 01-5.638-87.07L60.843 65.934a102.64 102.64 0 01149.975-49.58v-.001zm94.499 165.717a53.992 53.992 0 0129.767 28.671 53.987 53.987 0 01.777 41.322 53.989 53.989 0 01-28.671 29.767 53.987 53.987 0 01-41.322.777 53.986 53.986 0 01-29.767-28.671 53.991 53.991 0 01-.778-41.322 54.05 54.05 0 0128.682-29.744 54.044 54.044 0 0141.312-.8z" fill="#fff"/></svg>