<svg width="16" height="16" fill="none" xmlns="http://www.w3.org/2000/svg"><path fill-rule="evenodd" clip-rule="evenodd" d="M12.596 4.268L10.61.296a.514.514 0 00-.308-.267.514.514 0 00-.407.029.527.527 0 00-.268.308.529.529 0 00.03.407l1.747 3.495H4.596L6.344.773a.514.514 0 00.029-.407.514.514 0 00-.268-.308.527.527 0 00-.407-.03.528.528 0 00-.308.268L3.404 4.268H1.6c-1.067 0-1.6.533-1.6 1.6C0 6.31.156 6.687.468 7c.313.312.69.469 1.132.469h12.8c.442 0 .82-.157 1.131-.469.313-.312.469-.69.469-1.13v-.002c0-1.066-.533-1.6-1.6-1.6h-1.804zM1.6 8.534c-.35 0-.66-.131-.93-.394l.64 5.502C1.49 15.213 2.373 16 3.956 16h8.086c1.583 0 2.466-.786 2.649-2.358l.638-5.502c-.27.263-.579.394-.93.394H1.6zm3.734 1.6V14.4a.514.514 0 01-.156.377.514.514 0 01-.377.156.514.514 0 01-.377-.156.514.514 0 01-.156-.377v-4.266c0-.147.052-.273.156-.377A.514.514 0 014.8 9.6c.147 0 .273.052.377.156.104.104.156.23.156.377zm3.044-.377c.104.104.156.23.156.377V14.4a.514.514 0 01-.156.377.514.514 0 01-.377.156.514.514 0 01-.377-.156.514.514 0 01-.156-.377v-4.266c0-.147.052-.273.156-.377A.514.514 0 018 9.6c.147 0 .273.052.377.156zm3.356.377V14.4a.514.514 0 01-.156.377.514.514 0 01-.377.156.514.514 0 01-.377-.156.514.514 0 01-.157-.377v-4.266c0-.147.053-.273.157-.377A.514.514 0 0111.2 9.6c.147 0 .273.052.377.156.104.104.156.23.156.377z" fill="#fff"/></svg>