<svg width="96" height="97" fill="none" xmlns="http://www.w3.org/2000/svg"><g filter="url(#filter0_d_70_638)"><path d="M17 7.068h67c14.71.746 7.873 30 0 69-18.049 6.04-27.396 12.526-67 0 15.5-37 18.148-70.795 0-69z" fill="#AE0F0F"/></g><path d="M53.97 30.752c.643 0 1.208.116 1.696.349a2.59 2.59 0 011.149 1.011c.273.442.41.985.41 1.627 0 .702-.148 1.308-.445 1.819-.296.505-.731.895-1.305 1.169-.575.273-1.274.41-2.099.41a7.497 7.497 0 01-1.47-.137 4.048 4.048 0 01-1.169-.41v-1.45c.342.192.752.35 1.23.472.48.119.937.178 1.375.178.465 0 .863-.068 1.196-.205a1.59 1.59 0 00.766-.629c.182-.283.273-.64.273-1.073 0-.574-.184-1.017-.554-1.326-.364-.315-.936-.472-1.715-.472-.274 0-.566.025-.875.075a7.13 7.13 0 00-.766.15l-.704-.416.376-4.888h5.195v1.415h-3.78l-.219 2.488c.164-.036.36-.07.588-.102.228-.037.51-.055.848-.055zm6.748-3.89c.733 0 1.29.274 1.668.82.378.543.567 1.31.567 2.304 0 .99-.182 1.762-.547 2.318-.36.556-.923.834-1.688.834-.716 0-1.26-.278-1.634-.834-.374-.556-.56-1.329-.56-2.318 0-.993.175-1.761.526-2.303.355-.547.911-.82 1.668-.82zm.007 1.121c-.297 0-.515.167-.657.5-.136.332-.205.836-.205 1.51 0 .67.069 1.176.205 1.518.142.337.36.506.657.506.3 0 .524-.169.67-.506.15-.337.225-.843.225-1.518 0-.67-.073-1.171-.219-1.504-.146-.337-.371-.506-.676-.506zm6.706-.977L61.887 37h-1.32l5.544-9.994h1.32zm-.185 3.855c.734 0 1.29.274 1.668.82.383.543.574 1.31.574 2.304 0 .985-.182 1.755-.547 2.31-.36.557-.925.835-1.695.835-.715 0-1.26-.278-1.634-.834-.373-.556-.56-1.326-.56-2.31 0-.994.175-1.762.526-2.304.356-.547.912-.82 1.668-.82zm.007 1.121c-.296 0-.515.167-.656.5-.137.332-.205.836-.205 1.51 0 .67.068 1.176.205 1.518.141.337.36.506.656.506.305 0 .53-.167.677-.5.145-.337.218-.845.218-1.524 0-.67-.072-1.171-.218-1.504-.146-.337-.372-.506-.677-.506zM57.21 51.99c0 .77-.098 1.472-.294 2.106a4.5 4.5 0 01-.868 1.627c-.388.45-.873.8-1.456 1.046-.584.246-1.267.369-2.051.369-.797 0-1.49-.123-2.078-.37a3.832 3.832 0 01-1.456-1.052c-.383-.456-.67-1-.861-1.634a7.26 7.26 0 01-.288-2.105c0-1.03.169-1.928.506-2.694.342-.77.86-1.367 1.552-1.79.697-.43 1.577-.643 2.639-.643 1.039 0 1.902.212 2.59.635a3.909 3.909 0 011.545 1.791c.347.766.52 1.67.52 2.714zm-7.629 0c0 .77.105 1.438.315 2.003.21.56.53.994.963 1.299.438.3.998.451 1.682.451.688 0 1.249-.15 1.682-.451.433-.305.752-.738.957-1.299.205-.565.307-1.233.307-2.003 0-1.171-.234-2.087-.704-2.748-.465-.665-1.207-.998-2.228-.998-.684 0-1.247.15-1.689.451-.437.301-.76.732-.97 1.292-.21.556-.315 1.224-.315 2.003zM60.984 57h-1.627v-9.994h5.647v1.38h-4.02v3.118h3.76v1.374h-3.76V57zm7.465 0h-1.627v-9.994h5.647v1.38h-4.02v3.118h3.76v1.374h-3.76V57z" fill="#fff"/><defs><filter id="filter0_d_70_638" x="0" y="0" width="95.655" height="96.231" filterUnits="userSpaceOnUse" color-interpolation-filters="sRGB"><feFlood flood-opacity="0" result="BackgroundImageFix"/><feColorMatrix in="SourceAlpha" values="0 0 0 0 0 0 0 0 0 0 0 0 0 0 0 0 0 0 127 0" result="hardAlpha"/><feOffset dx="-7" dy="3"/><feGaussianBlur stdDeviation="5"/><feComposite in2="hardAlpha" operator="out"/><feColorMatrix values="0 0 0 0 0 0 0 0 0 0 0 0 0 0 0 0 0 0 0.25 0"/><feBlend in2="BackgroundImageFix" result="effect1_dropShadow_70_638"/><feBlend in="SourceGraphic" in2="effect1_dropShadow_70_638" result="shape"/></filter></defs></svg>