<svg width="96" height="97" fill="none" xmlns="http://www.w3.org/2000/svg"><g filter="url(#filter0_d_70_635)"><path d="M17 7.068h67c14.71.746 7.873 30 0 69-20.604 6.262-23.5 12.932-67 0 15.5-37 18.148-70.795 0-69z" fill="#AE0F0F"/></g><path d="M53.652 47h-2.016l-4.895-7.977h-.061c.018.268.034.553.047.854.019.3.032.61.042.93.013.319.025.642.034.97V47h-1.49v-9.994h2.002l4.888 7.923h.048c-.01-.233-.02-.5-.034-.8l-.041-.93c-.01-.323-.016-.636-.02-.936v-5.257h1.496V47zm8.285 0h-5.66v-9.994h5.66v1.38h-4.019v2.715h3.767v1.374h-3.767v3.137h4.02V47zm13.98-9.994L73.306 47h-1.791l-1.668-5.988a18.679 18.679 0 01-.137-.52c-.05-.2-.1-.405-.15-.615l-.124-.574a12.292 12.292 0 01-.068-.41c-.009.095-.03.23-.061.403-.032.173-.071.364-.117.574-.04.205-.086.41-.136.615-.05.2-.096.379-.137.534L67.277 47h-1.785l-2.604-9.994h1.647l1.443 5.858c.045.187.09.39.136.609.05.214.096.43.137.65a19.737 19.737 0 01.212 1.202c.023-.173.052-.364.089-.574.036-.214.075-.43.116-.65.045-.223.091-.437.137-.642.05-.205.1-.39.15-.554l1.627-5.9h1.6l1.66 5.92c.05.17.099.358.144.568a22.315 22.315 0 01.356 1.832 25.432 25.432 0 01.294-1.64c.064-.297.127-.57.191-.82l1.436-5.86h1.654z" fill="#fff"/><defs><filter id="filter0_d_70_635" x="0" y="0" width="95.655" height="96.472" filterUnits="userSpaceOnUse" color-interpolation-filters="sRGB"><feFlood flood-opacity="0" result="BackgroundImageFix"/><feColorMatrix in="SourceAlpha" values="0 0 0 0 0 0 0 0 0 0 0 0 0 0 0 0 0 0 127 0" result="hardAlpha"/><feOffset dx="-7" dy="3"/><feGaussianBlur stdDeviation="5"/><feComposite in2="hardAlpha" operator="out"/><feColorMatrix values="0 0 0 0 0 0 0 0 0 0 0 0 0 0 0 0 0 0 0.25 0"/><feBlend in2="BackgroundImageFix" result="effect1_dropShadow_70_635"/><feBlend in="SourceGraphic" in2="effect1_dropShadow_70_635" result="shape"/></filter></defs></svg>