<svg width="19" height="18" fill="none" xmlns="http://www.w3.org/2000/svg"><path d="M15.232 17.824a.281.281 0 00.201-.11.275.275 0 00.05-.221l-1.285-6.17 4.71-4.245a.274.274 0 00.078-.29.28.28 0 00-.236-.19l-6.338-.704L9.78.162a.28.28 0 00-.51 0L6.64 5.895.3 6.598a.28.28 0 00-.236.19.274.274 0 00.078.29l4.71 4.244-1.286 6.17a.276.276 0 00.109.282c.09.064.208.071.304.017l5.546-3.113 5.545 3.113c.05.027.106.038.161.033zm-.423-.819l-5.146-2.887a.282.282 0 00-.275 0l-5.146 2.887 1.192-5.722a.274.274 0 00-.088-.262L.976 7.078l5.88-.65a.28.28 0 00.226-.159L9.525.944 11.97 6.27a.28.28 0 00.225.16l5.882.65-4.371 3.942a.274.274 0 00-.087.262l1.191 5.722z" fill="#FBA724"/></svg>