<svg width="96" height="97" fill="none" xmlns="http://www.w3.org/2000/svg"><g filter="url(#filter0_d_505_3)"><path d="M17 7.068h67c14.71.746 7.873 30 0 69-22.919 6.07-28.362 12.24-67 0 15.5-37 18.148-70.795 0-69z" fill="#AE0F0F"/></g><path d="M52.397 37h-6.768v-1.21l2.59-2.625c.502-.51.914-.95 1.238-1.32.324-.373.563-.726.718-1.059.16-.333.24-.695.24-1.087 0-.483-.14-.847-.418-1.094-.278-.25-.645-.375-1.1-.375-.433 0-.834.086-1.204.26a5.59 5.59 0 00-1.134.724l-.882-1.06a7.55 7.55 0 01.888-.65c.32-.195.675-.35 1.067-.464a4.632 4.632 0 011.34-.178c.633 0 1.18.114 1.64.342.46.223.814.536 1.06.937.25.4.376.868.376 1.401a3.46 3.46 0 01-.321 1.49c-.215.456-.52.907-.916 1.354a25.57 25.57 0 01-1.416 1.442l-1.729 1.689v.075h4.73V37zm8.011-5.004c0 .807-.064 1.53-.191 2.167-.123.634-.32 1.171-.588 1.613-.269.442-.62.78-1.053 1.012-.433.233-.957.349-1.572.349-.77 0-1.406-.203-1.907-.609-.502-.41-.873-.998-1.115-1.763-.241-.77-.362-1.693-.362-2.769 0-1.075.11-1.996.328-2.762.224-.77.584-1.36 1.08-1.77.497-.41 1.156-.615 1.976-.615.775 0 1.413.205 1.914.615.506.405.88.993 1.121 1.764.246.765.37 1.688.37 2.768zm-5.168 0c0 .843.055 1.547.164 2.112.114.566.301.99.56 1.272.26.278.607.417 1.04.417.433 0 .78-.14 1.039-.417.26-.278.447-.7.56-1.265.119-.565.178-1.271.178-2.119 0-.838-.057-1.54-.17-2.105-.115-.565-.301-.99-.561-1.272-.26-.287-.609-.43-1.046-.43-.438 0-.786.143-1.046.43-.255.283-.44.707-.554 1.272-.11.565-.164 1.267-.164 2.105zm8.545-5.134c.734 0 1.29.274 1.668.82.378.543.567 1.31.567 2.304 0 .99-.182 1.762-.546 2.318-.36.556-.923.834-1.689.834-.715 0-1.26-.278-1.634-.834-.373-.556-.56-1.329-.56-2.318 0-.993.175-1.761.526-2.303.356-.547.912-.82 1.668-.82zm.007 1.121c-.296 0-.515.167-.656.5-.137.332-.205.836-.205 1.51 0 .67.068 1.176.205 1.518.141.337.36.506.656.506.3 0 .524-.169.67-.506.15-.337.225-.843.225-1.518 0-.67-.072-1.171-.218-1.504-.146-.337-.372-.506-.677-.506zm6.706-.977L64.954 37h-1.32l5.545-9.994h1.319zm-.184 3.855c.733 0 1.29.274 1.667.82.383.543.575 1.31.575 2.304 0 .985-.183 1.755-.547 2.31-.36.557-.925.835-1.695.835-.716 0-1.26-.278-1.634-.834-.374-.556-.56-1.326-.56-2.31 0-.994.175-1.762.525-2.304.356-.547.912-.82 1.669-.82zm.006 1.121c-.296 0-.515.167-.656.5-.137.332-.205.836-.205 1.51 0 .67.068 1.176.205 1.518.141.337.36.506.656.506.306 0 .531-.167.677-.5.146-.337.219-.845.219-1.524 0-.67-.073-1.171-.219-1.504-.146-.337-.371-.506-.677-.506zM55.186 51.99c0 .77-.098 1.472-.294 2.106a4.5 4.5 0 01-.869 1.627c-.387.45-.872.8-1.456 1.046-.583.246-1.267.369-2.05.369-.798 0-1.49-.123-2.079-.37a3.832 3.832 0 01-1.456-1.052 4.54 4.54 0 01-.86-1.634 7.26 7.26 0 01-.288-2.105c0-1.03.169-1.928.506-2.694a3.89 3.89 0 011.552-1.79c.697-.43 1.576-.643 2.638-.643 1.04 0 1.903.212 2.591.635a3.909 3.909 0 011.545 1.791c.346.766.52 1.67.52 2.714zm-7.63 0c0 .77.105 1.438.315 2.003.21.56.531.994.964 1.299.438.3.998.451 1.682.451.688 0 1.248-.15 1.681-.451.433-.305.752-.738.957-1.299.205-.565.308-1.233.308-2.003 0-1.171-.235-2.087-.704-2.748-.465-.665-1.208-.998-2.229-.998-.683 0-1.246.15-1.688.451-.438.301-.761.732-.97 1.292-.21.556-.315 1.224-.315 2.003zM58.96 57h-1.627v-9.994h5.646v1.38H58.96v3.118h3.76v1.374h-3.76V57zm7.465 0h-1.627v-9.994h5.646v1.38h-4.02v3.118h3.76v1.374h-3.76V57z" fill="#fff"/><defs><filter id="filter0_d_505_3" x="0" y="0" width="95.655" height="96.12" filterUnits="userSpaceOnUse" color-interpolation-filters="sRGB"><feFlood flood-opacity="0" result="BackgroundImageFix"/><feColorMatrix in="SourceAlpha" values="0 0 0 0 0 0 0 0 0 0 0 0 0 0 0 0 0 0 127 0" result="hardAlpha"/><feOffset dx="-7" dy="3"/><feGaussianBlur stdDeviation="5"/><feComposite in2="hardAlpha" operator="out"/><feColorMatrix values="0 0 0 0 0 0 0 0 0 0 0 0 0 0 0 0 0 0 0.25 0"/><feBlend in2="BackgroundImageFix" result="effect1_dropShadow_505_3"/><feBlend in="SourceGraphic" in2="effect1_dropShadow_505_3" result="shape"/></filter></defs></svg>